<svg width="20" height="23" viewBox="0 0 20 23" fill="none" xmlns="http://www.w3.org/2000/svg">
<path d="M4.44444 23H15.5556C15.8229 23 16.0814 22.9003 16.2834 22.719C16.4855 22.5378 16.6176 22.2872 16.6556 22.0133L18.7411 6.9H20V4.6H18.4644L16.5489 0.63595C16.4569 0.444789 16.3152 0.28399 16.1397 0.171641C15.9642 0.0592923 15.7619 -0.000150191 15.5556 2.84983e-07H4.44444C4.02333 2.84983e-07 3.63889 0.2461 3.45 0.63595L1.53556 4.6H0V6.9H1.25889L3.34444 22.0133C3.38241 22.2872 3.51454 22.5378 3.7166 22.719C3.91865 22.9003 4.17707 23 4.44444 23ZM16.02 10.35H3.98L3.50333 6.9H16.4956L16.02 10.35ZM5.40778 20.7L4.93111 17.25H15.0678L14.5911 20.7H5.40778ZM5.13111 2.3H14.8689L15.98 4.6H4.02L5.13111 2.3Z" fill="#99582a"/>
</svg>
