<svg width="18" height="5" viewBox="0 0 18 5" fill="none" xmlns="http://www.w3.org/2000/svg">
<path d="M17.2335 2.08937C17.2828 1.96043 17.2183 1.81588 17.0894 1.76652L14.9881 0.962169C14.8591 0.91281 14.7146 0.977329 14.6652 1.10628C14.6158 1.23522 14.6804 1.37977 14.8093 1.42913L16.6771 2.14411L15.9622 4.01194C15.9128 4.14089 15.9773 4.28543 16.1063 4.33479C16.2352 4.38415 16.3798 4.31963 16.4291 4.19069L17.2335 2.08937ZM16.5735 2.19035L16.4716 1.96206L16.5735 2.19035ZM0.896177 2.22742L0.965047 2.25886L1.17269 1.80402L1.10382 1.77258L0.896177 2.22742ZM1.10279 2.32174L1.17166 2.35318L1.3793 1.89834L1.31043 1.8669L1.10279 2.32174ZM1.17166 2.35318C1.34187 2.43089 1.5131 2.506 1.68526 2.57848L1.87928 2.11766C1.71168 2.0471 1.545 1.97399 1.3793 1.89834L1.17166 2.35318ZM2.73145 2.98273C3.08442 3.10718 3.44072 3.22097 3.79984 3.32401L3.93774 2.8434C3.58814 2.74309 3.24131 2.63232 2.8977 2.51118L2.73145 2.98273ZM4.88664 3.60111C5.25158 3.68267 5.61886 3.75334 5.988 3.81305L6.06783 3.31946C5.70849 3.26134 5.35095 3.19254 4.9957 3.11314L4.88664 3.60111ZM7.10003 3.95908C7.47174 3.99668 7.84482 4.02325 8.21877 4.03869L8.2394 3.53911C7.87537 3.52408 7.51219 3.49822 7.15034 3.46162L7.10003 3.95908ZM9.34027 4.05158C9.52704 4.04817 9.71391 4.04197 9.90081 4.03299L9.8768 3.53356C9.69485 3.54231 9.51295 3.54834 9.33113 3.55166L9.34027 4.05158ZM9.90081 4.03299C10.0953 4.02364 10.2895 4.01128 10.4833 3.99593L10.4439 3.49749C10.2552 3.51243 10.0661 3.52446 9.8768 3.53356L9.90081 4.03299ZM11.6435 3.86779C12.029 3.81308 12.4125 3.74645 12.7935 3.66805L12.6928 3.17831C12.3219 3.25463 11.9485 3.31949 11.5733 3.37275L11.6435 3.86779ZM13.929 3.39748C14.3044 3.29563 14.6768 3.18214 15.0455 3.05712L14.885 2.58359C14.526 2.70529 14.1635 2.81578 13.7981 2.91492L13.929 3.39748ZM16.1388 2.64827C16.3187 2.57456 16.4976 2.49801 16.6754 2.41864L16.4716 1.96206C16.2986 2.03932 16.1244 2.11384 15.9492 2.1856L16.1388 2.64827ZM16.6754 2.41864L16.7821 2.37106L16.5783 1.91447L16.4716 1.96206L16.6754 2.41864ZM16.9953 2.27588L17.1019 2.22829L16.8981 1.77171L16.7915 1.8193L16.9953 2.27588Z" fill="white"/>
</svg>
