<svg width="18" height="10" viewBox="0 0 18 10" fill="none" xmlns="http://www.w3.org/2000/svg">
<circle cx="1.24138" cy="1.24138" r="1.24138" transform="matrix(-1 0 0 1 13.0345 0)" fill="black"/>
<circle cx="1.24138" cy="1.24138" r="1.24138" transform="matrix(-1 0 0 1 13.0345 1.24139)" fill="black"/>
<path d="M7.54827 1.86208C7.54827 1.91142 7.57286 1.96854 7.63893 2.03102C7.7052 2.0937 7.80647 2.15475 7.9399 2.20812C8.20621 2.31464 8.58097 2.38277 9 2.38277C9.41903 2.38277 9.79379 2.31464 10.0601 2.20812C10.1935 2.15475 10.2948 2.0937 10.3611 2.03102C10.4271 1.96854 10.4517 1.91142 10.4517 1.86208C10.4517 1.81273 10.4271 1.75561 10.3611 1.69313C10.2948 1.63045 10.1935 1.5694 10.0601 1.51603C9.79379 1.40951 9.41903 1.34139 9 1.34139C8.58097 1.34139 8.20621 1.40951 7.9399 1.51603C7.80647 1.5694 7.7052 1.63045 7.63893 1.69313C7.57286 1.75561 7.54827 1.81273 7.54827 1.86208Z" fill="white" stroke="black" stroke-width="0.2"/>
<path d="M13.1345 1.86208C13.1345 1.91142 13.1591 1.96854 13.2251 2.03102C13.2914 2.0937 13.3927 2.15475 13.5261 2.20812C13.7924 2.31464 14.1672 2.38277 14.5862 2.38277C15.0052 2.38277 15.38 2.31464 15.6463 2.20812C15.7797 2.15475 15.881 2.0937 15.9473 2.03102C16.0133 1.96854 16.0379 1.91142 16.0379 1.86208C16.0379 1.81273 16.0133 1.75561 15.9473 1.69313C15.881 1.63045 15.7797 1.5694 15.6463 1.51603C15.38 1.40951 15.0052 1.34139 14.5862 1.34139C14.1672 1.34139 13.7924 1.40951 13.5261 1.51603C13.3927 1.5694 13.2914 1.63045 13.2251 1.69313C13.1591 1.75561 13.1345 1.81273 13.1345 1.86208Z" fill="white" stroke="black" stroke-width="0.2"/>
<circle cx="1.24138" cy="1.24138" r="1.24138" transform="matrix(-1 0 0 1 5.58621 3.72414)" fill="black"/>
<circle cx="1.24138" cy="1.24138" r="1.24138" transform="matrix(-1 0 0 1 5.58621 4.96552)" fill="black"/>
<path d="M0.1 5.5862C0.1 5.63555 0.124589 5.69267 0.190654 5.75515C0.256929 5.81783 0.358198 5.87888 0.491629 5.93225C0.757936 6.03877 1.13269 6.10689 1.55172 6.10689C1.97076 6.10689 2.34551 6.03877 2.61182 5.93225C2.74525 5.87888 2.84652 5.81783 2.9128 5.75515C2.97886 5.69267 3.00345 5.63555 3.00345 5.5862C3.00345 5.53686 2.97886 5.47974 2.9128 5.41726C2.84652 5.35458 2.74525 5.29353 2.61182 5.24016C2.34551 5.13364 1.97076 5.06552 1.55172 5.06552C1.13269 5.06552 0.757936 5.13364 0.491629 5.24016C0.358198 5.29353 0.256929 5.35458 0.190654 5.41726C0.124589 5.47974 0.1 5.53686 0.1 5.5862Z" fill="white" stroke="black" stroke-width="0.2"/>
<path d="M5.68621 5.5862C5.68621 5.63555 5.7108 5.69267 5.77686 5.75515C5.84314 5.81783 5.9444 5.87888 6.07784 5.93225C6.34414 6.03877 6.7189 6.10689 7.13793 6.10689C7.55696 6.10689 7.93172 6.03877 8.19803 5.93225C8.33146 5.87888 8.43273 5.81783 8.499 5.75515C8.56507 5.69267 8.58966 5.63555 8.58966 5.5862C8.58966 5.53686 8.56507 5.47974 8.499 5.41726C8.43273 5.35458 8.33146 5.29353 8.19803 5.24016C7.93172 5.13364 7.55696 5.06552 7.13793 5.06552C6.7189 5.06552 6.34414 5.13364 6.07784 5.24016C5.9444 5.29353 5.84314 5.35458 5.77686 5.41726C5.7108 5.47974 5.68621 5.53686 5.68621 5.5862Z" fill="white" stroke="black" stroke-width="0.2"/>
<circle cx="1.24138" cy="1.24138" r="1.24138" transform="matrix(-1 0 0 1 14.8966 6.20689)" fill="black"/>
<circle cx="1.24138" cy="1.24138" r="1.24138" transform="matrix(-1 0 0 1 14.8966 7.44827)" fill="black"/>
<path d="M9.41034 8.06896C9.41034 8.11831 9.43493 8.17543 9.501 8.23791C9.56727 8.30058 9.66854 8.36164 9.80197 8.41501C10.0683 8.52153 10.443 8.58965 10.8621 8.58965C11.2811 8.58965 11.6559 8.52153 11.9222 8.41501C12.0556 8.36164 12.1569 8.30058 12.2231 8.23791C12.2892 8.17543 12.3138 8.11831 12.3138 8.06896C12.3138 8.01962 12.2892 7.9625 12.2231 7.90002C12.1569 7.83734 12.0556 7.77629 11.9222 7.72292C11.6559 7.61639 11.2811 7.54827 10.8621 7.54827C10.443 7.54827 10.0683 7.61639 9.80197 7.72292C9.66854 7.77629 9.56727 7.83734 9.501 7.90002C9.43493 7.9625 9.41034 8.01962 9.41034 8.06896Z" fill="white" stroke="black" stroke-width="0.2"/>
<path d="M14.9966 8.06896C14.9966 8.11831 15.0211 8.17543 15.0872 8.23791C15.1535 8.30058 15.2547 8.36164 15.3882 8.41501C15.6545 8.52153 16.0292 8.58965 16.4483 8.58965C16.8673 8.58965 17.2421 8.52153 17.5084 8.41501C17.6418 8.36164 17.7431 8.30058 17.8093 8.23791C17.8754 8.17543 17.9 8.11831 17.9 8.06896C17.9 8.01962 17.8754 7.9625 17.8093 7.90002C17.7431 7.83734 17.6418 7.77629 17.5084 7.72292C17.2421 7.61639 16.8673 7.54827 16.4483 7.54827C16.0292 7.54827 15.6545 7.61639 15.3882 7.72292C15.2547 7.77629 15.1535 7.83734 15.0872 7.90002C15.0211 7.9625 14.9966 8.01962 14.9966 8.06896Z" fill="white" stroke="black" stroke-width="0.2"/>
</svg>
