<svg width="9" height="4" viewBox="0 0 9 4" fill="none" xmlns="http://www.w3.org/2000/svg">
<circle cx="1.24138" cy="1.24138" r="1.24138" transform="matrix(-1 0 0 1 5.58622 0)" fill="black"/>
<circle cx="1.24138" cy="1.24138" r="1.24138" transform="matrix(-1 0 0 1 5.58622 1.24138)" fill="black"/>
<path d="M0.100012 1.86207C0.100012 1.91141 0.1246 1.96854 0.190665 2.03101C0.256941 2.09369 0.35821 2.15474 0.491641 2.20811C0.757947 2.31464 1.1327 2.38276 1.55174 2.38276C1.97077 2.38276 2.34552 2.31464 2.61183 2.20811C2.74526 2.15474 2.84653 2.09369 2.91281 2.03101C2.97887 1.96854 3.00346 1.91141 3.00346 1.86207C3.00346 1.81273 2.97887 1.7556 2.91281 1.69312C2.84653 1.63045 2.74526 1.56939 2.61183 1.51602C2.34552 1.4095 1.97077 1.34138 1.55174 1.34138C1.1327 1.34138 0.757947 1.4095 0.491641 1.51602C0.35821 1.56939 0.256941 1.63045 0.190665 1.69312C0.1246 1.7556 0.100012 1.81273 0.100012 1.86207Z" fill="white" stroke="black" stroke-width="0.2"/>
<path d="M5.68622 1.86207C5.68622 1.91141 5.71081 1.96854 5.77687 2.03101C5.84315 2.09369 5.94442 2.15474 6.07785 2.20811C6.34415 2.31464 6.71891 2.38276 7.13794 2.38276C7.55697 2.38276 7.93173 2.31464 8.19804 2.20811C8.33147 2.15474 8.43274 2.09369 8.49901 2.03101C8.56508 1.96854 8.58967 1.91141 8.58967 1.86207C8.58967 1.81273 8.56508 1.7556 8.49901 1.69312C8.43274 1.63045 8.33147 1.56939 8.19804 1.51602C7.93173 1.4095 7.55697 1.34138 7.13794 1.34138C6.71891 1.34138 6.34415 1.4095 6.07785 1.51602C5.94442 1.56939 5.84315 1.63045 5.77687 1.69312C5.71081 1.7556 5.68622 1.81273 5.68622 1.86207Z" fill="white" stroke="black" stroke-width="0.2"/>
</svg>
